<?xml version="1.0" encoding="utf-8"?>
<!-- Generator: Adobe Illustrator 27.0.0, SVG Export Plug-In . SVG Version: 6.00 Build 0)  -->
<svg version="1.1" id="Layer_1" xmlns="http://www.w3.org/2000/svg" xmlns:xlink="http://www.w3.org/1999/xlink" x="0px" y="0px"
	 viewBox="0 0 2560 1811" style="enable-background:new 0 0 2560 1811;" xml:space="preserve">
<style type="text/css">
	.st0{fill:#FFFFFF;}
	.st1{fill:#54575D;}
	.st2{fill:url(#SVGID_1_);}
	.st3{fill:url(#SVGID_00000014593495456193883150000012840200715739904414_);}
	.st4{fill:url(#SVGID_00000091009860961926423100000016677182965481016724_);}
	.st5{fill:url(#SVGID_00000121246652754825710870000009173479075925603518_);}
</style>
<path id="XMLID_00000165237054779716134800000007604739420821592219_" class="st1" d="M1279.98,637.98
	c-371.83,0-674.35,302.48-674.41,674.29h81.33c0.06-327.48,265.58-592.96,593.08-592.96s593.02,265.47,593.08,592.96h81.31
	C1954.31,940.46,1651.81,637.98,1279.98,637.98z M1279.98,637.98c-371.83,0-674.35,302.48-674.41,674.29h81.33
	c0.06-327.48,265.58-592.96,593.08-592.96s593.02,265.47,593.08,592.96h81.31C1954.31,940.46,1651.81,637.98,1279.98,637.98z
	 M2057.39,1081.88c-16.2-54.64-37.98-106.9-64.72-156.09l59.38-221.69l-163.77-163.77l-221.67,59.42
	c-49.17-26.76-101.43-48.52-156.11-64.72l-114.7-198.69h-231.6l-114.7,198.69c-54.68,16.2-106.92,37.96-156.11,64.72l-221.69-59.38
	L507.93,704.1l59.38,221.69c-26.73,49.19-48.5,101.45-64.72,156.13L303.94,1196.6v115.67h258.92
	c0.04-191.51,74.61-371.52,210.02-506.95c135.45-135.45,315.54-210.04,507.09-210.04c191.53,0,371.6,74.59,507.07,210.04
	c135.41,135.43,209.98,315.44,210.02,506.95h258.98V1196.6L2057.39,1081.88z M1279.98,637.98c-371.83,0-674.35,302.48-674.41,674.29
	h81.33c0.06-327.48,265.58-592.96,593.08-592.96s593.02,265.47,593.08,592.96h81.31C1954.31,940.46,1651.81,637.98,1279.98,637.98z"
	/>
<g>
	<path class="st1" d="M307.99,1449.14v-49.16c0-9.18,1.89-16.03,5.67-20.53c3.78-4.5,9.54-6.75,17.29-6.75
		c7.83,0,13.59,2.32,17.29,6.96c3.69,4.64,5.54,11.01,5.54,19.11v13.5h-14.86v-14.18c0-3.96-0.56-6.98-1.69-9.05
		c-1.13-2.07-3.22-3.11-6.28-3.11c-5.4,0-8.1,4.05-8.1,12.16v52.67c0,8.19,2.65,12.29,7.97,12.29c2.79,0,4.84-0.97,6.14-2.9
		c1.3-1.94,1.96-4.97,1.96-9.12v-15.67h14.86v14.99c0,17.29-7.65,25.93-22.96,25.93C315.6,1476.29,307.99,1467.24,307.99,1449.14z"
		/>
	<path class="st1" d="M361.21,1449.14v-49.29c0-8.91,1.91-15.67,5.74-20.26c3.83-4.59,9.57-6.89,17.22-6.89
		c7.74,0,13.53,2.3,17.36,6.89c3.82,4.59,5.74,11.34,5.74,20.26v49.29c0,18.1-7.7,27.15-23.09,27.15
		C368.86,1476.29,361.21,1467.24,361.21,1449.14z M378.9,1367.84h-8.51l8.64-17.29h11.88l8.78,17.29h-8.51l-6.08-9.59L378.9,1367.84
		z M392.4,1450.76v-52.67c0-8.1-2.75-12.16-8.24-12.16c-5.4,0-8.1,4.05-8.1,12.16v52.67c0,8.19,2.7,12.29,8.1,12.29
		C389.65,1463.05,392.4,1458.96,392.4,1450.76z"/>
	<path class="st1" d="M431.43,1474.67h-14.58v-100.34h15.67l14.86,52.67l2.7,12.42h0.27l-0.54-13.78v-51.32h14.59v100.34h-15.67
		l-14.86-52.54l-2.7-12.42h-0.27l0.54,13.77V1474.67z"/>
	<path class="st1" d="M479.64,1469.53c-3.78-4.5-5.67-11.3-5.67-20.39v-49.16c0-9.18,1.89-16.03,5.67-20.53
		c3.78-4.5,9.54-6.75,17.29-6.75c7.92,0,13.69,2.23,17.29,6.68c3.6,4.46,5.4,10.87,5.4,19.25v12.15h-14.72v-13.37
		c0-3.78-0.56-6.64-1.69-8.58c-1.13-1.94-3.22-2.9-6.28-2.9c-2.52,0-4.5,0.97-5.94,2.9c-1.44,1.94-2.16,4.88-2.16,8.85v53.48
		c0,8.19,2.74,12.29,8.24,12.29c3.06,0,5.33-0.92,6.82-2.77c1.49-1.84,2.23-4.84,2.23-8.98v-15.12h-8.64v-12.56h22.28v24.71
		c0,9-1.76,15.85-5.27,20.53c-3.51,4.68-9.36,7.02-17.56,7.02C489.18,1476.29,483.42,1474.04,479.64,1469.53z"/>
	<path class="st1" d="M576.87,1474.67h-14.86v-86.84h-14.18v-13.5h43.22v13.5h-14.18V1474.67z"/>
	<path class="st1" d="M625.08,1474.67h-14.86v-29.04l-17.02-71.31h15.39l8.37,46.86l0.41,5.4h0.27l0.68-5.4l8.1-46.86h15.53
		l-16.88,71.31V1474.67z"/>
	<path class="st1" d="M696.53,1474.67h-14.86v-86.84h-14.18v-13.5h43.21v13.5h-14.18V1474.67z"/>
	<path class="st1" d="M731.64,1474.67h-14.59v-100.34h15.67l14.86,52.67l2.7,12.42h0.27l-0.54-13.78v-51.32h14.59v100.34h-15.67
		l-14.86-52.54l-2.7-12.42h-0.27l0.54,13.77V1474.67z"/>
	<path class="st1" d="M806.45,1417.13v-42.81h14.72v100.34h-14.72v-44.16h-15.94v44.16h-14.86v-100.34h14.86v42.81H806.45z"/>
	<path class="st1" d="M863.18,1417.13v-42.81h14.72v100.34h-14.72v-44.16h-15.94v44.16h-14.86v-100.34h14.86v42.81H863.18z"/>
	<path class="st1" d="M912.2,1449.14v-49.16c0-9.18,1.89-16.03,5.67-20.53c3.78-4.5,9.54-6.75,17.29-6.75
		c7.83,0,13.59,2.32,17.29,6.96c3.69,4.64,5.54,11.01,5.54,19.11v13.5h-14.86v-14.18c0-3.96-0.56-6.98-1.69-9.05
		c-1.13-2.07-3.22-3.11-6.28-3.11c-5.4,0-8.1,4.05-8.1,12.16v52.67c0,8.19,2.65,12.29,7.97,12.29c2.79,0,4.84-0.97,6.14-2.9
		c1.3-1.94,1.96-4.97,1.96-9.12v-15.67h14.86v14.99c0,17.29-7.65,25.93-22.96,25.93C919.8,1476.29,912.2,1467.24,912.2,1449.14z"/>
	<path class="st1" d="M965.41,1449.14v-49.29c0-8.91,1.91-15.67,5.74-20.26c3.83-4.59,9.57-6.89,17.22-6.89
		c7.74,0,13.53,2.3,17.36,6.89c3.82,4.59,5.74,11.34,5.74,20.26v49.29c0,18.1-7.7,27.15-23.09,27.15
		C973.06,1476.29,965.41,1467.24,965.41,1449.14z M983.1,1367.84h-8.51l8.64-17.29h11.88l8.78,17.29h-8.51l-6.08-9.59L983.1,1367.84
		z M996.6,1450.76v-52.67c0-8.1-2.75-12.16-8.24-12.16c-5.4,0-8.1,4.05-8.1,12.16v52.67c0,8.19,2.7,12.29,8.1,12.29
		C993.86,1463.05,996.6,1458.96,996.6,1450.76z"/>
	<path class="st1" d="M1035.63,1474.67h-14.58v-100.34h15.67l14.86,52.67l2.7,12.42h0.27l-0.54-13.78v-51.32h14.59v100.34h-15.67
		l-14.86-52.54l-2.7-12.42h-0.27l0.54,13.77V1474.67z"/>
	<path class="st1" d="M1083.84,1469.53c-3.78-4.5-5.67-11.3-5.67-20.39v-49.16c0-9.18,1.89-16.03,5.67-20.53
		c3.78-4.5,9.54-6.75,17.29-6.75c7.92,0,13.68,2.23,17.29,6.68c3.6,4.46,5.4,10.87,5.4,19.25v12.15h-14.72v-13.37
		c0-3.78-0.56-6.64-1.69-8.58c-1.13-1.94-3.22-2.9-6.28-2.9c-2.52,0-4.5,0.97-5.94,2.9c-1.44,1.94-2.16,4.88-2.16,8.85v53.48
		c0,8.19,2.75,12.29,8.24,12.29c3.06,0,5.33-0.92,6.82-2.77c1.49-1.84,2.23-4.84,2.23-8.98v-15.12h-8.64v-12.56h22.28v24.71
		c0,9-1.76,15.85-5.27,20.53c-3.51,4.68-9.37,7.02-17.56,7.02C1093.38,1476.29,1087.62,1474.04,1083.84,1469.53z"/>
	<path class="st1" d="M1172.16,1474.67h-14.59v-100.34h15.67l14.86,52.67l2.7,12.42h0.27l-0.54-13.78v-51.32h14.59v100.34h-15.67
		l-14.86-52.54l-2.7-12.42h-0.27l0.54,13.77V1474.67z"/>
	<path class="st1" d="M1220.38,1469.53c-3.78-4.5-5.67-11.3-5.67-20.39v-49.16c0-9.18,1.89-16.03,5.67-20.53
		c3.78-4.5,9.54-6.75,17.29-6.75c7.92,0,13.69,2.23,17.29,6.68c3.6,4.46,5.4,10.87,5.4,19.25v12.15h-14.72v-13.37
		c0-3.78-0.56-6.64-1.69-8.58c-1.13-1.94-3.22-2.9-6.28-2.9c-2.52,0-4.5,0.97-5.94,2.9c-1.44,1.94-2.16,4.88-2.16,8.85v53.48
		c0,8.19,2.74,12.29,8.24,12.29c3.06,0,5.33-0.92,6.82-2.77c1.49-1.84,2.23-4.84,2.23-8.98v-15.12h-8.64v-12.56h22.28v24.71
		c0,9-1.76,15.85-5.27,20.53c-3.51,4.68-9.36,7.02-17.56,7.02C1229.92,1476.29,1224.16,1474.04,1220.38,1469.53z"/>
	<path class="st1" d="M1300.32,1417.13v-42.81h14.72v100.34h-14.72v-44.16h-15.94v44.16h-14.86v-100.34h14.86v42.81H1300.32z"/>
	<path class="st1" d="M1363.53,1474.67h-37.28v-100.34h36.87v13.1h-22.01v29.44h19.18v12.96h-19.18v31.6h22.42V1474.67z
		 M1337.46,1367.84h-8.51l8.64-17.29h11.88l8.78,17.29h-8.51l-6.08-9.59L1337.46,1367.84z M1339.62,1490.47
		c-1.17-0.99-1.76-2.48-1.76-4.46c0-2.07,0.58-3.58,1.76-4.52c1.17-0.95,3.02-1.42,5.54-1.42c2.61,0,4.5,0.47,5.67,1.42
		c1.17,0.95,1.76,2.45,1.76,4.52c0,1.98-0.59,3.46-1.76,4.46c-1.17,0.99-3.06,1.49-5.67,1.49
		C1342.64,1491.95,1340.79,1491.46,1339.62,1490.47z"/>
	<path class="st1" d="M1394.45,1449.14v-49.16c0-9.18,1.89-16.03,5.67-20.53c3.78-4.5,9.54-6.75,17.29-6.75
		c7.83,0,13.59,2.32,17.29,6.96c3.69,4.64,5.54,11.01,5.54,19.11v13.5h-14.86v-14.18c0-3.96-0.56-6.98-1.69-9.05
		c-1.13-2.07-3.22-3.11-6.28-3.11c-5.4,0-8.1,4.05-8.1,12.16v52.67c0,8.19,2.65,12.29,7.97,12.29c2.79,0,4.84-0.97,6.14-2.9
		c1.3-1.94,1.96-4.97,1.96-9.12v-15.67h14.86v14.99c0,17.29-7.65,25.93-22.96,25.93
		C1402.06,1476.29,1394.45,1467.24,1394.45,1449.14z"/>
	<path class="st1" d="M1493.71,1399.85v49.29c0,18.1-7.7,27.15-23.09,27.15c-15.31,0-22.96-9.05-22.96-27.15v-49.29
		c0-8.91,1.91-15.67,5.74-20.26c3.83-4.59,9.57-6.89,17.22-6.89c2.43,0,4.41,0.18,5.94,0.54c2.16-0.09,3.85-0.65,5.06-1.69
		c1.21-1.03,1.82-2.81,1.82-5.33c0-1.08-0.22-2.75-0.67-5l9.45-0.54c0.45,2.25,0.68,4.1,0.68,5.54c0,5.58-2.12,9.54-6.35,11.88
		C1491.33,1382.61,1493.71,1389.85,1493.71,1399.85z M1478.86,1398.09c0-8.1-2.75-12.16-8.24-12.16c-5.4,0-8.1,4.05-8.1,12.16v52.67
		c0,8.19,2.7,12.29,8.1,12.29c5.49,0,8.24-4.1,8.24-12.29V1398.09z"/>
	<path class="st1" d="M1542.73,1474.67h-14.86v-100.34h14.86v42.14h5l9.99-42.14h15.8l-13.64,48.48v0.41l15.53,51.45h-15.94
		l-11.75-44.97h-5V1474.67z"/>
	<path class="st1" d="M1612.69,1417.13v-42.81h14.72v100.34h-14.72v-44.16h-15.94v44.16h-14.86v-100.34h14.86v42.81H1612.69z"/>
	<path class="st1" d="M1658.07,1350.42l-12.29,17.29h-9.05l7.7-17.29H1658.07z M1653.47,1474.67h-14.86v-100.34h14.86V1474.67z"/>
	<path class="st1" d="M1687.64,1449.14v-49.16c0-9.18,1.89-16.03,5.67-20.53c3.78-4.5,9.54-6.75,17.29-6.75
		c7.83,0,13.59,2.32,17.29,6.96c3.69,4.64,5.54,11.01,5.54,19.11v13.5h-14.86v-14.18c0-3.96-0.56-6.98-1.69-9.05
		c-1.13-2.07-3.22-3.11-6.28-3.11c-5.4,0-8.1,4.05-8.1,12.16v52.67c0,8.19,2.65,12.29,7.97,12.29c2.79,0,4.84-0.97,6.14-2.9
		c1.3-1.94,1.96-4.97,1.96-9.12v-15.67h14.86v14.99c0,17.29-7.65,25.93-22.96,25.93
		C1695.25,1476.29,1687.64,1467.24,1687.64,1449.14z"/>
	<path class="st1" d="M1773.13,1417.13v-42.81h14.72v100.34h-14.72v-44.16h-15.94v44.16h-14.86v-100.34h14.86v42.81H1773.13z"/>
	<path class="st1" d="M1818.5,1350.42l-12.29,17.29h-9.05l7.7-17.29H1818.5z M1813.91,1474.67h-14.86v-100.34h14.86V1474.67z"/>
	<path class="st1" d="M1839.57,1474.67h-14.59v-100.34h15.67l14.86,52.67l2.7,12.42h0.27l-0.54-13.78v-51.32h14.59v100.34h-15.67
		l-14.86-52.54l-2.7-12.42h-0.27l0.54,13.77V1474.67z"/>
	<path class="st1" d="M1914.39,1417.13v-42.81h14.72v100.34h-14.72v-44.16h-15.94v44.16h-14.86v-100.34h14.86v42.81H1914.39z"/>
	<path class="st1" d="M1976.1,1474.67h-15.8l14.72-52.26l-13.23-48.08h15.67l7.02,29.58l1.76,10.13h0.27l1.48-10.13l7.16-29.58h15.8
		l-13.23,47.94l14.58,52.4h-15.8l-8.37-33.76l-1.76-9.99h-0.13l-1.89,10.13L1976.1,1474.67z"/>
	<path class="st1" d="M2067.93,1474.67h-15.12l-2.84-19.18h-17.83l-2.84,19.18h-14.99l16.61-100.34h20.26L2067.93,1474.67z
		 M2052.27,1350.42l-12.29,17.29h-9.05l7.7-17.29H2052.27z M2039.98,1403.36l-5.94,39.43h14.04l-5.81-39.43l-1.08-9.72h-0.27
		L2039.98,1403.36z"/>
	<path class="st1" d="M2071.58,1449.14v-49.16c0-9.18,1.89-16.03,5.67-20.53c3.78-4.5,9.54-6.75,17.29-6.75
		c7.83,0,13.59,2.32,17.29,6.96c3.69,4.64,5.54,11.01,5.54,19.11v13.5h-14.86v-14.18c0-3.96-0.56-6.98-1.69-9.05
		c-1.13-2.07-3.22-3.11-6.28-3.11c-5.4,0-8.1,4.05-8.1,12.16v52.67c0,8.19,2.65,12.29,7.97,12.29c2.79,0,4.84-0.97,6.14-2.9
		c1.3-1.94,1.96-4.97,1.96-9.12v-15.67h14.86v14.99c0,17.29-7.65,25.93-22.96,25.93
		C2079.19,1476.29,2071.58,1467.24,2071.58,1449.14z"/>
	<path class="st1" d="M2181.65,1417.13v-42.81h14.72v100.34h-14.72v-44.16h-15.94v44.16h-14.86v-100.34h14.86v42.81H2181.65z"/>
	<path class="st1" d="M2222.43,1474.67h-14.86v-100.34h14.86v42.14h5l9.99-42.14h15.8l-13.64,48.48v0.41l15.53,51.45h-15.94
		l-11.75-44.97h-5V1474.67z"/>
</g>
<g>
	<path class="st1" d="M1371.23,1312.26h-182.45c18.15-31.39,52.2-52.56,91.24-52.56C1319.05,1259.7,1353.1,1280.87,1371.23,1312.26z
		"/>
	<linearGradient id="SVGID_1_" gradientUnits="userSpaceOnUse" x1="857.9734" y1="1037.9681" x2="1237.5729" y2="1037.9681">
		<stop  offset="0" style="stop-color:#41BBEC"/>
		<stop  offset="1" style="stop-color:#004054"/>
	</linearGradient>
	<path class="st2" d="M1152.69,777.1c27.53-6.65,55.88-11.18,84.88-13.42v427.3c-26.32,6.63-50.09,19.53-69.78,37.01
		c-5.44,4.75-10.36,9.85-15.1,15.12v-202.53c-15.12,6.11-29.55,13.24-43.46,21.39c-26.15,15.27-50.09,33.95-71.13,55.34
		c-30.9,31.4-55.86,69.09-72.84,110.67c-10.73,26.36-18.33,54.52-21.93,83.85c-0.03,0.14-0.04,0.28-0.05,0.42h-85.31V964.42
		c0.12-0.14,0.22-0.28,0.33-0.41c12.23-15.18,25.27-29.71,39.03-43.47c3.06-3.06,6.16-6.08,9.29-9.08c1.58-1.5,3.15-2.98,4.73-4.45
		c3.18-2.94,6.38-5.86,9.61-8.73c1.62-1.43,3.24-2.86,4.89-4.28c3.27-2.84,6.58-5.63,9.93-8.39c2.5-2.06,5.02-4.11,7.56-6.12v219.06
		c41.45-54.83,95.96-99.23,158.88-128.63c1.14-0.53,2.29-1.05,3.43-1.56c0.6-0.29,1.22-0.55,1.83-0.83
		c14.66-6.54,29.75-12.27,45.22-17.1V777.1z"/>
	
		<linearGradient id="SVGID_00000121248835261954712090000006152920645838913950_" gradientUnits="userSpaceOnUse" x1="1702.0648" y1="1037.9681" x2="1322.3865" y2="1037.9681">
		<stop  offset="0" style="stop-color:#41BBEC"/>
		<stop  offset="1" style="stop-color:#004054"/>
	</linearGradient>
	<path style="fill:url(#SVGID_00000121248835261954712090000006152920645838913950_);" d="M1702.06,1312.26h-85.4
		c-3.59-29.5-11.19-57.81-21.98-84.28c-16.98-41.58-41.92-79.27-72.82-110.69c-21.05-21.38-44.99-40.06-71.13-55.33
		c-13.92-8.16-28.35-15.29-43.46-21.39v202.53c-4.75-5.27-9.68-10.36-15.12-15.12c-19.69-17.48-43.46-30.39-69.76-37.01v-427.3
		c21.75,1.68,43.13,4.65,64.08,8.83c6.99,1.39,13.92,2.92,20.8,4.58v173.34c41.25,12.91,79.78,32.08,114.59,56.18
		c19.86-20.2,37.17-42.77,51.44-67.22c8.14-13.75,15.27-28.35,21.38-43.29c3.45-8.64,6.65-17.38,9.43-26.33h0.01
		c1.63,1.23,3.24,2.46,4.86,3.69c5.16,3.95,10.24,8.01,15.26,12.14c3.34,2.76,6.65,5.56,9.92,8.39c1.64,1.41,3.27,2.84,4.9,4.28
		c3.23,2.89,6.44,5.79,9.6,8.73c1.58,1.46,3.16,2.95,4.74,4.45c3.13,2.99,6.21,6.02,9.27,9.08c3.26,3.26,6.47,6.55,9.65,9.89v0.01
		c-9.29,22.5-20.44,43.97-33.16,64.3c-15.27,24.1-32.94,46.69-52.81,67.23c44.65,46.5,78.77,103.21,98.47,166.02
		C1693.41,1254.96,1699.18,1283.1,1702.06,1312.26z"/>
</g>
</svg>
